<?xml version="1.0" encoding="UTF-8"?>
<!DOCTYPE svg PUBLIC "-//W3C//DTD SVG 1.0//EN" "http://www.w3.org/TR/2001/REC-SVG-20010904/DTD/svg10.dtd">
<!-- Creator: CorelDRAW X7 -->
<svg xmlns="http://www.w3.org/2000/svg" xml:space="preserve" width="10.4167in" height="6.36286in" version="1.0" style="shape-rendering:geometricPrecision; text-rendering:geometricPrecision; image-rendering:optimizeQuality; fill-rule:evenodd; clip-rule:evenodd"
viewBox="0 0 8412 5139"
 xmlns:xlink="../../../../external.html?link=http://www.w3.org/1999/xlink">
 <defs>
  <style type="text/css">
   <![CDATA[
    .fil0 {fill:#FEFEFE}
    .fil7 {fill:#FAD2C4}
    .fil14 {fill:#FAB745}
    .fil12 {fill:#F6A429}
    .fil2 {fill:#EB6150}
    .fil16 {fill:#EE9B82}
    .fil20 {fill:#F6F8FC}
    .fil15 {fill:#EA821C}
    .fil26 {fill:#EFF0F3}
    .fil21 {fill:#EDEFF5}
    .fil8 {fill:#EDEEF4}
    .fil13 {fill:#D06626}
    .fil23 {fill:#D1DAE8}
    .fil1 {fill:#CBD2DE}
    .fil9 {fill:#C4BEB9}
    .fil22 {fill:#B5BFCE}
    .fil18 {fill:#ADD0BA}
    .fil25 {fill:#ACB5C7}
    .fil17 {fill:#9ABFA4}
    .fil10 {fill:#8E6F6E}
    .fil24 {fill:#98A3B8}
    .fil6 {fill:#868FA5}
    .fil5 {fill:#60514A}
    .fil4 {fill:#7A7F96}
    .fil19 {fill:#618370}
    .fil3 {fill:#505779}
    .fil11 {fill:#323C7E}
   ]]>
  </style>
    <clipPath id="id0">
     <path d="M3146 2383c0,0 10,-1 14,-7 8,-12 -6,-24 -15,-30 -11,-7 -27,-9 -33,-24 -6,-16 5,-33 18,-42 11,-7 24,-11 37,-16 13,-5 27,-13 36,-26 10,-16 8,-37 9,-56 5,-71 78,-107 140,-108 1,0 2,0 3,0 31,0 76,11 95,34 7,8 13,18 14,28 4,16 -3,31 -13,43 -11,12 -25,19 -37,30 -12,12 -3,23 -6,37 -3,15 -13,21 -26,28 -27,16 -60,19 -89,28 -10,2 -19,5 -27,11 -9,8 -15,20 -22,30 -14,18 -34,31 -56,36l-42 4z"/>
    </clipPath>
 </defs>
 <g id="Layer_x0020_1">
  <metadata id="CorelCorpID_0Corel-Layer"/>
  <g id="_1397914861328">
   <path class="fil0" d="M8412 5139l-8412 0 0 -5139 8412 0 0 5139z"/>
   <path class="fil1" d="M4144 1238l0 -6 -1316 0c-17,0 -31,-13 -31,-30l0 -766c0,-17 14,-31 31,-31l1316 0c17,0 30,14 30,31l0 766c0,17 -13,30 -30,30l0 6 0 6c23,0 41,-19 41,-42l0 -766c0,-23 -18,-42 -41,-42l-1316 0c-23,0 -42,19 -42,42l0 766c0,23 19,42 42,42l1316 0 0 -6z"/>
   <path class="fil1" d="M2792 557l1388 0 0 -11 -1388 0 0 11z"/>
   <path class="fil1" d="M2904 476l-6 0c0,10 -8,17 -17,17 -9,0 -16,-7 -16,-17 0,-9 7,-16 16,-16 9,0 17,7 17,16l6 0 5 0c0,-15 -12,-27 -28,-27 -15,0 -27,12 -27,27 0,16 12,28 27,28 16,0 28,-12 28,-28l-5 0z"/>
   <path class="fil1" d="M2995 476l-6 0c0,10 -7,17 -16,17 -10,0 -17,-7 -17,-17 0,-9 7,-16 17,-16 9,0 16,7 16,16l6 0 5 0c0,-15 -12,-27 -27,-27 -16,0 -28,12 -28,27 0,16 12,28 28,28 15,0 27,-12 27,-28l-5 0z"/>
   <path class="fil1" d="M3086 476l-6 0c0,10 -7,17 -16,17 -9,0 -17,-7 -17,-17 0,-9 8,-16 17,-16 9,0 16,7 16,16l6 0 6 0c0,-15 -13,-27 -28,-27 -15,0 -28,12 -28,27 0,16 13,28 28,28 15,0 28,-12 28,-28l-6 0z"/>
   <path class="fil1" d="M2064 1326l0 5 328 0c35,0 63,-28 63,-63l0 -328c0,-35 -28,-63 -63,-63l-328 0c-35,0 -64,28 -64,63l0 328c0,35 29,63 64,63l0 -5 0 -6c-15,0 -28,-6 -37,-15 -10,-9 -15,-22 -15,-37l0 -328c0,-14 5,-27 15,-36 9,-10 22,-16 37,-16l328 0c14,0 27,6 36,16 10,9 16,22 16,36l0 328c0,15 -6,28 -16,37 -9,9 -22,15 -36,15l-328 0 0 6z"/>
   <path class="fil1" d="M2355 1104l-17 0c0,31 -13,58 -33,78 -20,20 -47,32 -77,32 -31,0 -58,-12 -78,-32 -20,-20 -32,-47 -32,-78 0,-30 12,-58 32,-78 20,-20 47,-32 78,-32 30,0 57,12 77,32 20,20 33,48 33,78l17 0 16 0c0,-79 -64,-143 -143,-143 -80,0 -144,64 -144,143 0,80 64,144 144,144 79,0 143,-64 143,-144l-16 0z"/>
   <path class="fil1" d="M2301 1003l-179 179 24 24 179 -179 -24 -24z"/>
   <path class="fil0" d="M5387 1225l-92 -95 -1415 0c-66,0 -119,-54 -119,-120l0 -735c0,-67 53,-120 119,-120l1421 0c66,0 120,53 120,120l0 936c0,18 -22,27 -34,14z"/>
   <path class="fil1" d="M5387 1225l4 -4 -92 -95c-1,-1 -3,-2 -4,-2l-1415 0c-31,0 -60,-13 -80,-33 -21,-21 -34,-49 -34,-81l0 -735c0,-32 13,-60 34,-81 20,-21 49,-34 80,-34l1421 0c32,0 60,13 81,34 20,21 33,49 33,81l0 936c0,5 -2,8 -4,11 -3,2 -7,4 -10,4 -4,0 -7,-2 -10,-5l-4 4 -4 4c5,5 11,8 18,8 6,0 13,-3 17,-7 5,-5 8,-11 8,-19l0 -936c0,-70 -56,-126 -125,-126l-1421 0c-69,0 -125,56 -125,126l0 735c0,69 56,125 125,125l1412 0 91 94 4 -4z"/>
   <path class="fil2" d="M4121 690l0 -65c0,-12 0,-28 1,-49 1,-20 2,-31 2,-32l-4 0c-8,19 -18,38 -29,54l-61 92 91 0zm208 111l-61 0 0 107 -147 0 0 -107 -220 0 0 -110 229 -336 138 0 0 335 61 0 0 111z"/>
   <path class="fil2" d="M4539 632c0,63 4,106 12,129 7,24 21,36 39,36 19,0 32,-13 39,-37 8,-24 12,-67 12,-128 0,-61 -4,-104 -12,-128 -8,-25 -21,-37 -39,-37 -18,0 -32,12 -39,36 -8,23 -12,67 -12,129zm250 0c0,98 -16,170 -49,215 -32,46 -83,69 -150,69 -66,0 -116,-24 -149,-72 -34,-47 -51,-118 -51,-212 0,-98 17,-170 50,-216 32,-46 82,-68 150,-68 66,0 115,23 149,71 34,48 50,119 50,213z"/>
   <path class="fil2" d="M5073 690l0 -65c0,-12 0,-28 1,-49 1,-20 2,-31 2,-32l-4 0c-9,19 -18,38 -29,54l-61 92 91 0zm208 111l-61 0 0 107 -147 0 0 -107 -221 0 0 -110 230 -336 138 0 0 335 61 0 0 111z"/>
   <path class="fil1" d="M6719 2616l0 5 328 0c35,0 63,-28 63,-63l0 -328c0,-35 -28,-63 -63,-63l-328 0c-35,0 -63,28 -63,63l0 328c0,35 28,63 63,63l0 -5 0 -6c-14,0 -27,-6 -36,-15 -10,-9 -16,-22 -16,-37l0 -328c0,-14 6,-27 16,-36 9,-10 22,-16 36,-16l328 0c15,0 28,6 37,16 9,9 15,22 15,36l0 328c0,15 -6,28 -15,37 -9,9 -22,15 -37,15l-328 0 0 6z"/>
   <path class="fil1" d="M6753 2499l260 0 -130 -225 -130 225zm273 20c-2,0 -3,1 -5,1l-275 0c-6,0 -11,-3 -14,-8 -3,-5 -3,-11 0,-16l137 -239c3,-5 8,-8 14,-8 6,0 11,3 14,8l138 238c3,5 3,12 0,17 -2,3 -5,5 -9,7z"/>
   <path class="fil1" d="M6883 2452l0 0c-5,0 -9,-4 -9,-9l-6 -94c0,-9 7,-16 15,-16 9,0 16,7 16,16l-6 94c0,5 -5,9 -10,9z"/>
   <path class="fil1" d="M6893 2474c0,6 -4,10 -10,10 -5,0 -10,-4 -10,-10 0,-5 5,-9 10,-9 6,0 10,4 10,9z"/>
   <path class="fil1" d="M1082 1824l-6 0c0,11 -9,19 -19,19 -11,0 -20,-8 -20,-19 0,-11 9,-19 20,-19 10,0 19,8 19,19l6 0 5 0c0,-17 -13,-30 -30,-30 -17,0 -31,13 -31,30 0,17 14,31 31,31 17,0 30,-14 30,-31l-5 0z"/>
   <path class="fil1" d="M5281 3157l-6 0c0,10 -8,19 -19,19 -11,0 -19,-9 -19,-19 0,-11 8,-20 19,-20 11,0 19,9 19,20l6 0 5 0c0,-17 -13,-31 -30,-31 -17,0 -31,14 -31,31 0,17 14,30 31,30 17,0 30,-13 30,-30l-5 0z"/>
   <path class="fil1" d="M6998 1104l-5 0c0,11 -9,20 -20,20 -10,0 -19,-9 -19,-20 0,-10 9,-19 19,-19 11,0 20,9 20,19l5 0 6 0c0,-17 -14,-30 -31,-30 -16,0 -30,13 -30,30 0,17 14,31 30,31 17,0 31,-14 31,-31l-6 0z"/>
   <path class="fil1" d="M5649 331l-5 0c0,11 -9,20 -20,20 -10,0 -19,-9 -19,-20 0,-10 9,-19 19,-19 11,0 20,9 20,19l5 0 6 0c0,-17 -14,-30 -31,-30 -17,0 -30,13 -30,30 0,17 13,31 30,31 17,0 31,-14 31,-31l-6 0z"/>
   <path class="fil1" d="M6943 1922l0 77c0,3 2,6 5,6 4,0 6,-3 6,-6l0 -77c0,-3 -2,-6 -6,-6 -3,0 -5,3 -5,6z"/>
   <path class="fil1" d="M6987 1955l-77 0c-3,0 -6,2 -6,5 0,4 3,6 6,6l77 0c3,0 6,-2 6,-6 0,-3 -3,-5 -6,-5z"/>
   <path class="fil1" d="M4920 3413l0 77c0,3 2,6 5,6 3,0 6,-3 6,-6l0 -77c0,-3 -3,-6 -6,-6 -3,0 -5,3 -5,6z"/>
   <path class="fil1" d="M4964 3446l-78 0c-3,0 -5,2 -5,5 0,4 2,6 5,6l78 0c3,0 5,-2 5,-6 0,-3 -2,-5 -5,-5z"/>
   <path class="fil1" d="M3283 188l0 78c0,3 2,5 5,5 3,0 6,-2 6,-5l0 -78c0,-3 -3,-5 -6,-5 -3,0 -5,2 -5,5z"/>
   <path class="fil1" d="M3327 222l-77 0c-4,0 -6,2 -6,5 0,3 2,6 6,6l77 0c3,0 6,-3 6,-6 0,-3 -3,-5 -6,-5z"/>
   <path class="fil1" d="M1550 937l0 77c0,3 3,6 6,6 3,0 5,-3 5,-6l0 -77c0,-4 -2,-6 -5,-6 -3,0 -6,2 -6,6z"/>
   <path class="fil1" d="M1594 970l-77 0c-3,0 -6,2 -6,5 0,3 3,6 6,6l77 0c3,0 6,-3 6,-6 0,-3 -3,-5 -6,-5z"/>
   <path class="fil1" d="M1424 2719l0 77c0,3 3,6 6,6 3,0 5,-3 5,-6l0 -77c0,-4 -2,-6 -5,-6 -3,0 -6,2 -6,6z"/>
   <path class="fil1" d="M1468 2752l-77 0c-3,0 -6,2 -6,5 0,3 3,6 6,6l77 0c3,0 6,-3 6,-6 0,-3 -3,-5 -6,-5z"/>
   <path class="fil1" d="M5811 627l0 77c0,3 3,6 6,6 3,0 6,-3 6,-6l0 -77c0,-3 -3,-6 -6,-6 -3,0 -6,3 -6,6z"/>
   <path class="fil1" d="M5856 660l-78 0c-3,0 -5,2 -5,5 0,3 2,6 5,6l78 0c3,0 5,-3 5,-6 0,-3 -2,-5 -5,-5z"/>
   <path class="fil1" d="M2006 2278l0 -6 -775 0c-10,0 -19,-8 -19,-19 0,-10 9,-18 19,-18l775 0c10,0 18,8 18,18 0,11 -8,19 -18,19l0 6 0 6c16,0 30,-14 30,-31 0,-16 -14,-30 -30,-30l-775 0c-17,0 -30,14 -30,30 0,17 13,31 30,31l775 0 0 -6z"/>
   <path class="fil1" d="M6566 1659l0 -5 -775 0c-10,0 -19,-9 -19,-19 0,-11 9,-19 19,-19l775 0c10,0 19,8 19,19 0,10 -9,19 -19,19l0 5 0 6c16,0 30,-13 30,-30 0,-17 -14,-30 -30,-30l-775 0c-16,0 -30,13 -30,30 0,17 14,30 30,30l775 0 0 -6z"/>
   <path class="fil1" d="M6679 1824l-286 0c-7,0 -12,-5 -12,-12 0,-7 5,-12 12,-12l286 0c7,0 12,5 12,12 0,7 -5,12 -12,12z"/>
   <path class="fil1" d="M5921 1240l-286 0c-7,0 -12,-5 -12,-12 0,-7 5,-12 12,-12l286 0c7,0 13,5 13,12 0,7 -6,12 -13,12z"/>
   <path class="fil1" d="M1718 2061l-219 0c-7,0 -13,-5 -13,-12 0,-7 6,-12 13,-12l219 0c6,0 12,5 12,12 0,7 -6,12 -12,12z"/>
   <path class="fil1" d="M6138 980l0 6 237 0c26,0 47,-21 47,-47l0 -237c0,-26 -21,-47 -47,-47l-237 0c-26,0 -47,21 -47,47l0 237c0,26 21,47 47,47l0 -6 0 -5c-20,0 -36,-16 -36,-36l0 -237c0,-20 16,-36 36,-36l237 0c20,0 36,16 36,36l0 237c0,20 -16,36 -36,36l-237 0 0 5z"/>
   <path class="fil1" d="M6237 834l34 0 5 -27 -34 0 -5 27zm65 -27l-5 27 30 0 0 25 -35 0 -9 48 -26 0 9 -48 -34 0 -9 48 -25 0 9 -48 -29 0 0 -25 33 0 6 -27 -30 0 0 -25 34 0 9 -48 26 0 -9 48 34 0 9 -48 26 0 -9 48 28 0 0 25 -33 0z"/>
   <path class="fil3" d="M3561 3195l-225 -1475 -1012 0 242 1563c17,106 105,180 214,180l1703 0 13 -143 -787 0c-75,0 -137,-52 -148,-125z"/>
   <path class="fil4" d="M2603 3195l-217 -1420c-5,-32 -31,-55 -64,-55l-2 0c-47,0 -84,43 -77,88l229 1475c16,106 105,180 214,180l1096 0 13 -143 -1045 0c-75,0 -136,-52 -147,-125z"/>
   <path class="fil5" d="M3280 3463l0 805 17 0 0 -805 -17 0z"/>
   <path class="fil5" d="M2845 4340l0 0c0,-18 7,-33 19,-45 11,-11 27,-18 44,-18l760 0c18,0 33,7 45,18 11,12 18,27 18,45l0 0 17 0c0,-44 -36,-80 -80,-80l-760 0c-44,0 -79,36 -79,80l0 0 16 0z"/>
   <path class="fil5" d="M3219 4340l0 0c0,-18 7,-33 18,-45 12,-11 27,-18 45,-18l0 -17c-44,0 -80,36 -80,80l0 0 17 0z"/>
   <path class="fil4" d="M2909 4411c0,40 -32,72 -72,72 -40,0 -72,-32 -72,-72 0,-39 32,-71 72,-71 40,0 72,32 72,71z"/>
   <path class="fil6" d="M2837 4438c-15,0 -26,-12 -26,-27 0,-14 11,-26 26,-26 14,0 26,12 26,26 0,15 -12,27 -26,27z"/>
   <path class="fil4" d="M3282 4411c0,40 -32,72 -72,72 -39,0 -71,-32 -71,-72 0,-39 32,-71 71,-71 40,0 72,32 72,71z"/>
   <path class="fil6" d="M3210 4438c-14,0 -26,-12 -26,-27 0,-14 12,-26 26,-26 15,0 27,12 27,26 0,15 -12,27 -27,27z"/>
   <path class="fil4" d="M3811 4411c0,40 -32,72 -71,72 -40,0 -72,-32 -72,-72 0,-39 32,-71 72,-71 39,0 71,32 71,71z"/>
   <path class="fil6" d="M3740 4438c-15,0 -27,-12 -27,-27 0,-14 12,-26 27,-26 14,0 26,12 26,26 0,15 -12,27 -26,27z"/>
   <path class="fil7" d="M4080 1878l257 -383 79 16c-61,205 -101,286 -101,286l-235 81z"/>
   <path class="fil7" d="M4375 1575l41 -64c0,0 76,-17 104,-31 28,-14 46,-39 54,-61 6,-16 3,-63 -4,-64 -16,-2 -49,59 -64,63 -15,3 -65,0 -92,3 -46,6 -66,49 -66,49l-42 76 69 29z"/>
   <path class="fil8" d="M4248 1607l45 -65 116 52 -37 99 -124 -86z"/>
   <path class="fil9" d="M3311 1470c0,0 190,-87 358,62 167,149 280,287 342,332l252 -290 141 66c-37,210 -142,545 -397,580 -276,37 -681,-303 -681,-303l-15 -447z"/>
   <path class="fil10" d="M3933 1964l82 -96 -9 -8 -81 97 8 7z"/>
   <path class="fil11" d="M4332 4362l-21 82c-5,20 10,39 30,39l249 0c14,0 27,-12 27,-27 0,-12 -8,-22 -19,-26l-170 -68 -96 0z"/>
   <path class="fil7" d="M4189 3082c-40,416 143,1280 143,1280 0,0 44,52 96,0 0,0 44,-823 90,-1194l-329 -86z"/>
   <path class="fil12" d="M3597 2594l285 149 0 3c0,0 581,-39 669,169 138,325 161,1382 161,1382l-425 0c0,0 -159,-888 -213,-942 -54,-54 -277,-50 -688,-50 -462,0 -236,-595 -65,-646l276 -65z"/>
   <path class="fil13" d="M4322 4296c0,0 -32,-229 -75,-466 -22,-119 -46,-240 -71,-336 -13,-48 -26,-89 -38,-121 -6,-16 -13,-30 -19,-40 -6,-11 -12,-19 -19,-24 -26,-19 -71,-30 -126,-37 -55,-7 -120,-10 -185,-10 -170,0 -342,17 -343,17l2 12c0,0 10,-2 29,-3 56,-5 185,-15 312,-15 65,0 129,3 183,10 54,7 98,18 121,35 5,3 11,10 17,20 10,19 22,49 34,85 40,129 82,348 114,534 16,94 29,179 38,241 5,31 8,56 11,73 2,17 4,27 4,27l11 -2z"/>
   <path class="fil11" d="M3439 4362l-21 82c-5,20 10,39 31,39l248 0c15,0 27,-12 27,-27 0,-12 -8,-22 -19,-26l-170 -68 -96 0z"/>
   <path class="fil7" d="M3481 3082c-40,416 -42,1280 -42,1280 0,0 44,52 96,0 0,0 150,-823 196,-1194l-250 -86z"/>
   <path class="fil14" d="M3094 2724c0,0 747,12 845,239 121,279 -78,1334 -78,1334l-450 0 0 -944c0,-19 -15,-35 -33,-34 -62,1 -202,1 -378,1 -462,0 -237,-718 -65,-769l159 173z"/>
   <path class="fil13" d="M3094 2730c0,0 11,0 32,1 72,3 254,13 428,46 87,17 172,40 240,71 69,31 120,70 140,117 27,61 43,159 43,277 0,25 -1,51 -3,78l12 1c1,-28 2,-54 2,-79 0,-119 -16,-218 -44,-281 -25,-59 -92,-103 -176,-136 -127,-50 -295,-76 -432,-90 -137,-14 -242,-16 -242,-16l0 11z"/>
   <path class="fil15" d="M3479 4297c0,0 0,-83 0,-201 0,-141 0,-331 -3,-491 -1,-80 -3,-152 -5,-207 -1,-27 -2,-50 -4,-67 -1,-9 -2,-16 -2,-22 -1,-5 -2,-10 -4,-13 -8,-19 -22,-31 -41,-38 -19,-7 -43,-9 -73,-9 -60,0 -145,8 -264,8 -106,0 -177,-35 -221,-90 -44,-54 -63,-129 -63,-207 0,-90 24,-184 59,-260 18,-38 38,-70 60,-95 21,-25 44,-42 65,-48l-3 -11c-25,7 -48,25 -71,51 -67,78 -121,225 -121,363 0,80 19,157 65,214 47,58 121,94 230,94 119,0 205,-8 264,-8 30,0 53,2 70,8 16,7 27,16 34,33 1,1 2,5 2,10 4,20 6,63 8,120 6,171 7,467 7,665 0,59 0,109 0,145 0,35 0,56 0,56l11 0z"/>
   <path class="fil15" d="M2807 2845c0,0 14,1 35,1 34,0 87,-1 134,-5 24,-2 47,-5 66,-10 18,-4 33,-9 41,-17 8,-8 12,-18 14,-30 3,-13 4,-27 4,-42 0,-59 -16,-132 -16,-132l-11 2c0,0 1,5 2,12 5,23 14,75 14,118 0,15 -1,28 -4,39 -2,11 -6,20 -11,25 -5,5 -18,11 -36,14 -54,13 -146,15 -197,15 -21,0 -35,-1 -35,-1l0 11z"/>
   <path class="fil15" d="M2801 2877c0,0 13,1 34,1l0 -12c-21,0 -34,0 -34,0l0 11zm56 1c10,-1 22,-1 34,-1l0 -11c-12,0 -24,0 -34,0l0 12zm56 -1c11,-1 23,-1 34,-2l0 -11c-12,1 -23,1 -34,1l0 12zm57 -3c11,0 22,-1 33,-2l-1 -11c-11,1 -22,1 -33,2l1 11zm56 -4c12,-2 23,-3 34,-5l-2 -11c-11,2 -22,3 -33,4l1 12zm56 -10c14,-3 25,-8 33,-14l-7 -8c-5,4 -15,8 -29,11l3 11zm47 -35c4,-10 6,-21 6,-34l-11 -1c-1,12 -2,23 -6,32l11 3zm7 -57c0,-11 -1,-23 -2,-34l-11 1c1,11 2,22 2,33l11 0zm-5 -57c-2,-12 -4,-23 -5,-33l-11 2c1,10 3,21 5,33l11 -2zm-10 -55c-2,-9 -3,-15 -3,-15l-11 3c0,0 0,1 1,4 0,2 1,6 2,10l11 -2z"/>
   <path class="fil9" d="M2755 1738c0,0 -57,1008 29,1008 86,0 1042,-3 1098,-3 56,0 -75,-862 -264,-1044 0,0 -280,-304 -403,-275 -124,29 -460,314 -460,314z"/>
   <path class="fil10" d="M3826 2195l-118 -486 -11 2 118 487 11 -3z"/>
   <path class="fil7" d="M2272 1920l-257 -383 -79 16c60,205 101,286 101,286l235 81z"/>
   <path class="fil7" d="M1977 1617l-41 -64c0,0 -76,-17 -104,-31 -28,-15 -46,-40 -54,-61 -6,-16 -3,-64 4,-64 16,-2 49,59 64,63 15,3 65,-1 92,3 46,6 65,49 65,49l42 76 -68 29z"/>
   <path class="fil8" d="M2104 1649l-45 -65 -116 52 37 99 124 -86z"/>
   <path class="fil9" d="M3108 1476c0,0 -188,-133 -382,31 -180,153 -301,461 -341,461 -28,0 -202,-222 -306,-357l-124 66c78,237 248,642 502,642 199,0 608,-467 608,-467l43 -376z"/>
   <path class="fil10" d="M2742 2174l303 -253 -7 -8 -303 252 7 9z"/>
   <path class="fil8" d="M3126 1500l181 193 23 -223 -204 30z"/>
   <path class="fil10" d="M3122 1504l181 193c1,2 3,2 6,2 2,-1 3,-3 3,-5l24 -224 -11 -1 -22 212 -173 -185 -8 8z"/>
   <path class="fil7" d="M3271 1305l51 111c0,0 20,64 -64,93 -93,31 -150,-33 -150,-33l-13 -174 176 3z"/>
   <path class="fil0" d="M3103 1413c0,0 67,83 155,96l-64 94c-52,-29 -115,-142 -115,-142l24 -48z"/>
   <path class="fil0" d="M3317 1401c0,0 -11,60 -59,108l72 55c17,-41 15,-105 15,-105l-28 -58z"/>
   <path class="fil7" d="M3346 1125c0,0 48,184 -24,230 -72,46 -197,-24 -204,-47 -7,-23 -40,-219 7,-234 84,-26 197,-27 221,51z"/>
   <path class="fil11" d="M3345 1185c1,5 -2,10 -7,11 -5,1 -10,-2 -11,-7 -1,-5 2,-10 7,-11 5,-2 10,2 11,7z"/>
   <path class="fil11" d="M3329 1130c3,0 17,2 14,9 -1,3 -6,3 -9,3 -3,-1 -6,-1 -8,0 0,1 1,2 1,3 1,2 -6,2 -6,2 -7,0 -16,-1 -24,5 5,-20 27,-23 32,-22z"/>
   <path class="fil11" d="M3230 1210c0,5 4,9 9,9 6,0 10,-5 9,-10 0,-5 -4,-9 -10,-9 -5,0 -9,5 -8,10z"/>
   <path class="fil11" d="M3202 1173c-7,4 -13,9 -11,14 1,5 6,3 8,1 5,-3 10,-6 16,-8 -3,2 -4,5 -4,9 17,-2 33,-17 35,-35 -1,2 -12,8 -14,9 -9,5 -20,5 -30,10z"/>
   <path class="fil16" d="M3293 1198c0,0 1,2 3,7 2,7 6,18 10,28 3,11 5,21 5,26 0,2 0,2 0,3l0 0 2 1 -1 -2 -1 1 2 1 -1 -2c-1,0 -3,1 -6,2 -8,1 -22,2 -28,2 -3,0 -4,0 -4,0l-1 11c0,0 2,0 5,0 4,0 12,0 20,-1 3,0 7,-1 10,-1 4,-1 7,-2 10,-4 2,-1 3,-3 4,-5 0,-2 0,-4 0,-6 0,-5 -1,-11 -3,-18 -5,-21 -15,-47 -15,-48l-11 5z"/>
   <path class="fil16" d="M3297 1360l0 0c-2,1 -20,8 -46,8 -25,0 -56,-6 -85,-30l-7 9c31,25 65,32 92,32 29,0 50,-8 50,-8l-4 -11z"/>
   <path class="fil16" d="M3263 1324l-2 -1 2 1 0 0 -2 -1 2 1c0,0 2,-6 8,-12 7,-6 18,-12 40,-12l0 -11c-24,0 -39,7 -48,15 -8,8 -10,17 -11,17l11 3z"/>
   <path class="fil11" d="M3387 1027c-1,-9 -2,-18 -8,-25 -7,-7 -18,-9 -28,-9 -35,0 -70,11 -99,32 8,-7 16,-14 24,-21 6,-5 20,-13 13,-23 -6,-9 -23,-4 -31,-4 -40,-1 -79,13 -116,28 -18,7 -37,14 -53,24 -17,11 -31,25 -39,43 -7,15 -9,33 -8,50 0,31 5,61 9,92 6,33 14,98 58,102 9,1 18,1 25,-4 7,-5 10,-14 11,-22 1,-14 0,-28 -3,-42 8,5 16,12 26,11 3,-1 6,-2 7,-5 1,-2 0,-4 0,-6 -3,-32 -5,-63 -7,-95 45,-10 91,-18 137,-25 21,-3 42,-7 58,-20 23,-19 27,-52 24,-81z"/>
   <path class="fil7" d="M3152 1260c-8,-18 -21,-41 -42,-28 -7,4 -11,14 -14,23 -9,31 13,79 43,74 15,-2 23,-19 29,-34l-16 -35z"/>
   <path class="fil17" d="M5902 3264c-1,-100 42,-199 115,-267 36,-34 79,-60 125,-77 26,-10 151,-19 151,-19 0,0 -15,95 -40,143 -58,112 -172,206 -351,220z"/>
   <path class="fil18" d="M6269 3548c45,-55 110,-93 180,-106 70,-13 145,0 207,35 2,1 4,3 5,5 0,3 -2,5 -4,7 -58,65 -147,100 -234,92 -38,-4 -118,-21 -154,-33z"/>
   <path class="fil17" d="M6369 3397c0,-88 29,-166 80,-217 51,-51 124,-75 202,-66 2,1 5,1 7,3 3,3 3,7 3,11 -5,104 -57,191 -138,226 -35,15 -115,37 -154,43z"/>
   <path class="fil18" d="M6504 3241c35,-56 77,-107 125,-151 19,-18 39,-35 63,-48 75,-40 167,-27 248,0 -32,61 -74,120 -136,151 -27,14 -57,21 -87,28 -59,13 -153,12 -213,20z"/>
   <path class="fil17" d="M6461 3095c-150,-78 -172,-242 -176,-303 -2,-38 0,-80 32,-108 186,66 233,192 144,411z"/>
   <path class="fil17" d="M5814 3072c12,-80 23,-166 -13,-238 -13,-26 -32,-49 -52,-69 -49,-51 -113,-92 -183,-92 -13,75 3,154 42,219 39,64 103,114 175,138l31 42z"/>
   <path class="fil18" d="M6251 3594c-84,-28 -155,-92 -192,-172 -37,-80 -39,-175 -6,-257 2,-4 4,-8 7,-9 4,-1 8,1 11,3 129,74 218,291 180,435z"/>
   <path class="fil18" d="M5899 3153c-24,-70 -23,-148 4,-217 26,-69 78,-129 142,-164 27,-15 55,-26 79,-45 8,35 13,71 16,107 2,35 2,71 -7,106 -25,88 -106,149 -189,190l-45 23z"/>
   <path class="fil18" d="M5791 3139c-135,17 -301,-38 -373,-165 230,-117 373,62 373,165z"/>
   <path class="fil18" d="M5869 3440c-30,-103 -109,-188 -205,-219 -96,-31 -205,-8 -283,61 -3,3 -7,7 -6,11 0,3 1,5 3,7 51,75 134,119 218,137 84,19 170,14 256,8l17 -5z"/>
   <path class="fil19" d="M5696 2888c70,70 114,159 146,251 34,95 58,194 78,294 41,209 52,421 76,633 1,3 5,3 5,0 -9,-216 -32,-435 -75,-646 -21,-103 -47,-206 -85,-305 -32,-85 -76,-166 -143,-229 -1,-2 -3,1 -2,2z"/>
   <path class="fil19" d="M5944 3527c-52,-84 -138,-133 -227,-170 -99,-40 -212,-65 -320,-58 -3,0 -3,4 0,4 196,9 421,56 542,227 2,3 7,0 5,-3z"/>
   <path class="fil19" d="M5903 3330c-1,-79 -9,-158 7,-236 14,-73 43,-139 87,-198 1,-2 -2,-4 -3,-3 -106,119 -107,289 -93,437 0,2 2,2 2,0z"/>
   <path class="fil19" d="M5590 3018c58,7 109,46 153,81 43,36 82,77 125,113 2,1 4,-1 3,-3 -44,-43 -91,-86 -140,-123 -41,-32 -88,-65 -141,-69l0 1z"/>
   <path class="fil19" d="M6198 3791c32,-164 98,-314 208,-441 52,-62 113,-116 180,-162 70,-47 145,-80 225,-110 3,-1 2,-6 -2,-5 -159,42 -306,152 -411,275 -105,124 -184,281 -204,443 0,2 4,3 4,0z"/>
   <path class="fil19" d="M6381 2811c79,166 108,355 28,525 -2,4 3,7 5,3 96,-159 49,-374 -29,-530 -2,-3 -5,0 -4,2z"/>
   <path class="fil20" d="M6483 3682l0 132c0,521 -137,669 -137,669l-425 0c0,0 -137,-148 -137,-669l0 -132 699 0z"/>
   <path class="fil5" d="M1930 4485l360 -1727 -16 -4 -360 1727 16 4z"/>
   <path class="fil5" d="M2651 4481l-361 -1727 -16 4 360 1727 17 -4z"/>
   <path class="fil5" d="M5568 4485l361 -1727 -17 -4 -360 1727 16 4z"/>
   <path class="fil5" d="M6289 4481l-360 -1727 -17 4 360 1727 17 -4z"/>
   <path class="fil21" d="M6236 2756l-4302 0 0 -103 4302 0 0 103z"/>
   <path class="fil3" d="M6029 2456l-1520 0c-28,0 -48,-25 -43,-52l174 -982c6,-31 33,-54 65,-54l1520 0c27,0 48,24 43,51l-175 983c-5,31 -32,54 -64,54z"/>
   <path class="fil1" d="M6064 2456l-1520 0c-27,0 -48,-25 -43,-52l175 -982c5,-31 32,-54 64,-54l1520 0c28,0 48,24 43,51l-174 983c-6,31 -33,54 -65,54z"/>
   <g>
    <path class="fil22" d="M5020 1827l878 0c16,0 27,15 25,30l-101 568c-3,18 -19,31 -37,31l-879 0c-15,0 -27,-14 -24,-30l101 -567c3,-18 18,-32 37,-32zm765 629l0 0 0 0z"/>
   </g>
   <path class="fil23" d="M5806 2456l-879 0c-15,0 -27,-14 -24,-30l101 -567c3,-18 18,-32 37,-32l878 0c16,0 27,15 25,30l-101 568c-3,18 -19,31 -37,31z"/>
   <path class="fil24" d="M5255 2122l356 0 0 334 -356 0 0 -334z"/>
   <path class="fil3" d="M5504 2497c-40,0 -82,-47 -94,-104 -12,-58 10,-104 50,-104 40,0 83,46 95,104 12,57 -11,104 -51,104zm87 -375l-336 0 0 96 91 380 357 0 -112 -476z"/>
   <path class="fil3" d="M5058 2598l798 0 0 55 -852 0c0,-30 24,-55 54,-55z"/>
   <path class="fil1" d="M5218 2598l638 0 0 55 -638 0 0 -55z"/>
   <path class="fil1" d="M5524 2497c-40,0 -82,-47 -95,-104 -12,-58 11,-104 51,-104 40,0 82,46 94,104 12,57 -10,104 -50,104zm87 -375l-356 0 112 476 357 0 -113 -476z"/>
   <path class="fil25" d="M4778 1584l-21 0 21 -119 22 0 -22 119z"/>
   <path class="fil25" d="M4840 1584l-22 0 22 -119 21 0 -21 119z"/>
   <path class="fil25" d="M4901 1584l-21 0 21 -119 21 0 -21 119z"/>
   <path class="fil25" d="M4962 1584l-21 0 21 -119 21 0 -21 119z"/>
   <path class="fil25" d="M5023 1584l-21 0 21 -119 21 0 -21 119z"/>
   <path class="fil25" d="M5581 1584l-21 0 21 -119 21 0 -21 119z"/>
   <path class="fil25" d="M5645 1584l-21 0 21 -119 21 0 -21 119z"/>
   <path class="fil25" d="M5709 1584l-21 0 21 -119 21 0 -21 119z"/>
   <path class="fil25" d="M5773 1584l-21 0 21 -119 22 0 -22 119z"/>
   <path class="fil25" d="M5838 1584l-21 0 21 -119 21 0 -21 119z"/>
   <path class="fil25" d="M5902 1584l-21 0 21 -119 21 0 -21 119z"/>
   <path class="fil25" d="M5966 1584l-21 0 21 -119 21 0 -21 119z"/>
   <path class="fil25" d="M6030 1584l-21 0 21 -119 22 0 -22 119z"/>
   <path class="fil25" d="M6095 1584l-21 0 21 -119 21 0 -21 119z"/>
   <path class="fil25" d="M6159 1584l-21 0 21 -119 21 0 -21 119z"/>
   <g style="clip-path:url(#id0)">
    <image transform="matrix(0.999999 -0 -0 -0.999999 3095.47 2389.52)" x="0" y="0" width="383" height="324" xlink:href="404_Images/404_ImgID1.png"/>
   </g>
   <path class="fil26" d="M3317 2564l-58 0 0 -28 58 0c19,0 34,-16 34,-34l0 -49c0,-18 -15,-34 -34,-34l-58 0 0 -28 58 0c34,0 62,28 62,62l0 49c0,34 -28,62 -62,62z"/>
   <path class="fil26" d="M3234 2637l-99 0c-38,0 -68,-31 -68,-69l0 -216 236 0 0 216c0,38 -31,69 -69,69z"/>
   <path class="fil23" d="M3028 2597c0,0 3,56 89,56l135 0c86,0 89,-56 89,-56l-313 0z"/>
   <path class="fil3" d="M4924 2653l-1248 0 0 -23 1248 0 0 23z"/>
   <path class="fil3" d="M3808 2630l-89 0 0 -17 89 0 0 17z"/>
   <path class="fil3" d="M3944 2630l-90 0 0 -17 90 0 0 17z"/>
   <path class="fil3" d="M4079 2630l-89 0 0 -17 89 0 0 17z"/>
   <path class="fil3" d="M4215 2630l-90 0 0 -17 90 0 0 17z"/>
   <path class="fil3" d="M4350 2630l-90 0 0 -17 90 0 0 17z"/>
   <path class="fil3" d="M4485 2630l-89 0 0 -17 89 0 0 17z"/>
   <path class="fil3" d="M4621 2630l-90 0 0 -17 90 0 0 17z"/>
   <path class="fil3" d="M4756 2630l-89 0 0 -17 89 0 0 17z"/>
   <path class="fil3" d="M4891 2630l-89 0 0 -17 89 0 0 17z"/>
   <path class="fil1" d="M4941 2653l-1248 0 0 -23 1248 0 0 23z"/>
   <path class="fil1" d="M3825 2630l-90 0 0 -17 90 0 0 17z"/>
   <path class="fil1" d="M3960 2630l-89 0 0 -17 89 0 0 17z"/>
   <path class="fil1" d="M4095 2630l-89 0 0 -17 89 0 0 17z"/>
   <path class="fil1" d="M4231 2630l-90 0 0 -17 90 0 0 17z"/>
   <path class="fil1" d="M4366 2630l-89 0 0 -17 89 0 0 17z"/>
   <path class="fil1" d="M4502 2630l-90 0 0 -17 90 0 0 17z"/>
   <path class="fil1" d="M4637 2630l-89 0 0 -17 89 0 0 17z"/>
   <path class="fil1" d="M4772 2630l-89 0 0 -17 89 0 0 17z"/>
   <path class="fil1" d="M4908 2630l-90 0 0 -17 90 0 0 17z"/>
   <path class="fil17" d="M1916 3490c16,-62 9,-129 -19,-186 -27,-57 -76,-104 -134,-129 -23,-11 -49,-18 -70,-33 -4,31 -6,62 -6,93 1,30 3,61 14,90 27,74 102,119 175,149l40 16z"/>
   <path class="fil19" d="M1925 3689c3,-144 5,-308 -108,-414 -2,-2 -4,1 -3,2 51,59 87,130 98,208 9,67 5,136 11,204 0,1 2,1 2,0z"/>
   <path class="fil17" d="M1742 3877c-11,-85 -58,-165 -127,-216 -35,-25 -74,-42 -115,-52 -23,-5 -131,1 -131,1 0,0 23,79 49,117 62,89 170,157 324,150z"/>
   <path class="fil18" d="M1648 3603c-3,-52 -12,-103 -28,-152 -6,-20 -14,-39 -25,-56 -35,-57 -101,-83 -165,-95 -1,55 5,112 35,156 13,20 31,37 48,52 35,32 98,67 135,95z"/>
   <path class="fil18" d="M2011 3415c-10,-69 -20,-142 12,-204 11,-22 27,-42 44,-60 42,-43 97,-79 157,-79 11,65 -2,133 -36,188 -34,56 -115,135 -177,155z"/>
   <path class="fil18" d="M1900 3814c64,13 133,-1 186,-39 54,-37 91,-97 100,-162 0,-3 1,-6 -1,-8 -2,-2 -5,-2 -8,-2 -110,-1 -247,104 -277,211z"/>
   <path class="fil18" d="M1673 3566c91,-52 150,-154 151,-265 -65,-4 -115,36 -143,71 -40,49 -43,134 -8,194z"/>
   <path class="fil18" d="M1739 3745c-24,-60 -16,-132 20,-186 36,-55 101,-89 166,-89 2,0 6,0 7,2 1,2 1,3 1,5 3,56 -22,110 -57,154 -35,43 -81,77 -126,109l-11 5z"/>
   <path class="fil19" d="M2110 3255c-121,115 -163,300 -195,457 -38,182 -58,371 -65,557 0,3 4,3 5,0 21,-182 30,-364 65,-544 32,-161 73,-347 192,-467 2,-2 0,-4 -2,-3z"/>
   <path class="fil19" d="M1739 3841c-2,-54 8,-103 20,-156 0,-2 -3,-4 -4,-2 -23,44 -29,111 -21,159 0,3 5,2 5,-1z"/>
   <path class="fil19" d="M1747 3378c-73,65 -91,203 -62,293 1,2 4,1 4,-1 -22,-94 -15,-220 59,-292l-1 0z"/>
   <path class="fil19" d="M1773 4158c4,-127 -17,-260 -51,-381 -35,-120 -90,-250 -181,-338 -3,-2 -6,2 -4,4 41,51 79,101 109,158 30,59 54,122 72,186 34,122 44,245 51,371 0,2 4,2 4,0z"/>
   <path class="fil20" d="M2144 3937l0 90c0,355 -117,456 -117,456l-365 0c0,0 -118,-101 -118,-456l0 -90 600 0z"/>
   <path class="fil3" d="M1343 4494l5726 0 0 -22 -5726 0 0 22z"/>
  </g>
 </g>
</svg>
